<svg width="70" height="70" viewBox="0 0 70 70" fill="none" xmlns="http://www.w3.org/2000/svg">
<g filter="url(#filter0_d_548_2636)">
<g opacity="0.7" filter="url(#filter1_d_548_2636)">
<rect x="10" y="6" width="50" height="50" rx="15" fill="#FF9F0A"/>
</g>
<path d="M35 45.6972C35.5687 45.6841 36.1144 45.4703 36.5407 45.0936C36.9669 44.7169 37.2462 44.2016 37.3292 43.6389H32.5806C32.6659 44.2169 32.9582 44.7443 33.4033 45.123C33.8483 45.5016 34.4158 45.7057 35 45.6972Z" fill="white"/>
<path d="M48.0993 39.8743C47.2287 39.0982 46.4665 38.2085 45.8333 37.2292C45.142 35.8773 44.7276 34.401 44.6145 32.8868V28.4271C44.6109 27.8854 44.5626 27.3449 44.4701 26.8111C43.7595 26.6691 43.0766 26.413 42.4479 26.0528C42.6875 26.8245 42.8093 27.628 42.809 28.4361V32.8958C42.9196 34.7429 43.4277 36.5444 44.2986 38.1771C44.9218 39.1647 45.6614 40.074 46.5013 40.8854H23.3812C24.2211 40.074 24.9607 39.1647 25.584 38.1771C26.4548 36.5444 26.9629 34.7429 27.0736 32.8958V28.4271C27.0688 27.3823 27.2702 26.3468 27.6662 25.38C28.0622 24.4131 28.645 23.5338 29.3813 22.7925C30.1175 22.0512 30.9928 21.4625 31.9569 21.0599C32.9211 20.6573 33.9551 20.4489 34.9999 20.4465C36.529 20.4478 38.0238 20.9 39.2972 21.7465C39.1568 21.231 39.078 20.7007 39.0624 20.1667C39.0624 19.9771 39.0624 19.7875 39.0624 19.5979C38.1198 19.1342 37.1071 18.8292 36.0652 18.6951V17.5576C36.0652 17.3994 36.0341 17.2426 35.9735 17.0964C35.9129 16.9502 35.8241 16.8173 35.7122 16.7054C35.6003 16.5935 35.4675 16.5047 35.3212 16.4442C35.175 16.3836 35.0183 16.3524 34.86 16.3524C34.7017 16.3524 34.545 16.3836 34.3988 16.4442C34.2526 16.5047 34.1197 16.5935 34.0078 16.7054C33.8959 16.8173 33.8071 16.9502 33.7465 17.0964C33.686 17.2426 33.6548 17.3994 33.6548 17.5576V18.7403C31.3218 19.0694 29.1866 20.2314 27.6434 22.0119C26.1002 23.7923 25.2533 26.071 25.259 28.4271V32.8868C25.1459 34.401 24.7316 35.8773 24.0402 37.2292C23.4181 38.2063 22.6682 39.0959 21.8104 39.8743C21.7141 39.9589 21.6369 40.063 21.584 40.1798C21.531 40.2965 21.5036 40.4232 21.5034 40.5514V41.7792C21.5034 42.0186 21.5985 42.2482 21.7678 42.4175C21.9371 42.5868 22.1668 42.6819 22.4062 42.6819H47.5034C47.7429 42.6819 47.9725 42.5868 48.1418 42.4175C48.3111 42.2482 48.4062 42.0186 48.4062 41.7792V40.5514C48.406 40.4232 48.3786 40.2965 48.3257 40.1798C48.2727 40.063 48.1955 39.9589 48.0993 39.8743Z" fill="white"/>
<path d="M45.8332 24.6806C48.3262 24.6806 50.3471 22.6596 50.3471 20.1667C50.3471 17.6737 48.3262 15.6528 45.8332 15.6528C43.3403 15.6528 41.3193 17.6737 41.3193 20.1667C41.3193 22.6596 43.3403 24.6806 45.8332 24.6806Z" fill="#FF3B30"/>
</g>
<defs>
<filter id="filter0_d_548_2636" x="0" y="0" width="70" height="70" filterUnits="userSpaceOnUse" color-interpolation-filters="sRGB">
<feFlood flood-opacity="0" result="BackgroundImageFix"/>
<feColorMatrix in="SourceAlpha" type="matrix" values="0 0 0 0 0 0 0 0 0 0 0 0 0 0 0 0 0 0 127 0" result="hardAlpha"/>
<feOffset dy="4"/>
<feGaussianBlur stdDeviation="5"/>
<feComposite in2="hardAlpha" operator="out"/>
<feColorMatrix type="matrix" values="0 0 0 0 0 0 0 0 0 0 0 0 0 0 0 0 0 0 0.11 0"/>
<feBlend mode="normal" in2="BackgroundImageFix" result="effect1_dropShadow_548_2636"/>
<feBlend mode="normal" in="SourceGraphic" in2="effect1_dropShadow_548_2636" result="shape"/>
</filter>
<filter id="filter1_d_548_2636" x="0" y="0" width="70" height="70" filterUnits="userSpaceOnUse" color-interpolation-filters="sRGB">
<feFlood flood-opacity="0" result="BackgroundImageFix"/>
<feColorMatrix in="SourceAlpha" type="matrix" values="0 0 0 0 0 0 0 0 0 0 0 0 0 0 0 0 0 0 127 0" result="hardAlpha"/>
<feOffset dy="4"/>
<feGaussianBlur stdDeviation="5"/>
<feComposite in2="hardAlpha" operator="out"/>
<feColorMatrix type="matrix" values="0 0 0 0 0 0 0 0 0 0 0 0 0 0 0 0 0 0 0.11 0"/>
<feBlend mode="normal" in2="BackgroundImageFix" result="effect1_dropShadow_548_2636"/>
<feBlend mode="normal" in="SourceGraphic" in2="effect1_dropShadow_548_2636" result="shape"/>
</filter>
</defs>
</svg>
