<svg viewBox="0 0 256 256" xmlns="http://www.w3.org/2000/svg"><path d="m127.99951 26.00012a102 102 0 1 0 102 102 102.1153 102.1153 0 0 0 -102-102zm0 192a90 90 0 1 1 90-90 90.10218 90.10218 0 0 1 -90 90zm36.24219-117.75732-27.75732 27.75732 27.75732 27.75733a5.99971 5.99971 0 1 1 -8.48438 8.48535l-27.75781-27.7578-27.75781 27.7578a5.99971 5.99971 0 0 1 -8.48438-8.48535l27.75733-27.75733-27.75733-27.75732a5.99971 5.99971 0 1 1 8.48438-8.48535l27.75781 27.75781 27.75781-27.75781a5.99971 5.99971 0 0 1 8.48438 8.48535z"/></svg>