<svg width="17" height="8" viewBox="0 0 17 8" fill="none" xmlns="http://www.w3.org/2000/svg">
<path d="M16.1062 5.29689C16.1664 5.40508 16.1821 5.53244 16.15 5.65201C16.1179 5.77158 16.0406 5.87397 15.9343 5.93752C15.8636 5.98002 15.7824 6.00169 15.6999 6.00002C15.6176 6.00007 15.5367 5.97844 15.4654 5.93729C15.3941 5.89615 15.3349 5.83695 15.2937 5.76564L13.7703 3.13283C12.8637 3.7642 11.8537 4.23219 10.7859 4.51564L11.2624 7.23439C11.2828 7.3566 11.254 7.4819 11.1823 7.58291C11.1105 7.68392 11.0017 7.75243 10.8796 7.77345H10.8015C10.6905 7.77475 10.5828 7.73596 10.4981 7.6642C10.4134 7.59243 10.3575 7.49253 10.3406 7.38283L9.864 4.70314C9.31406 4.79517 8.75753 4.8422 8.19994 4.84377C7.63998 4.84475 7.08085 4.80034 6.52807 4.71095L6.0515 7.39064C6.03308 7.49966 5.97671 7.59865 5.89237 7.67013C5.80802 7.74161 5.70112 7.78097 5.59057 7.78127H5.51244C5.39035 7.76024 5.28154 7.69174 5.20981 7.59072C5.13807 7.48971 5.10925 7.36441 5.12963 7.2422L5.60619 4.52345C4.54022 4.23499 3.53104 3.76739 2.62182 3.14064L1.09838 5.78127C1.05721 5.85257 0.99799 5.91177 0.926673 5.95292C0.855357 5.99406 0.774462 6.01569 0.692128 6.01564C0.610057 6.01436 0.529564 5.9929 0.457753 5.95314C0.404378 5.92239 0.357588 5.88142 0.320059 5.83257C0.282529 5.78372 0.254996 5.72795 0.239034 5.66845C0.223071 5.60896 0.218992 5.5469 0.22703 5.48582C0.235068 5.42475 0.255065 5.36586 0.285878 5.31252L1.87182 2.5547C1.31011 2.08131 0.794762 1.5555 0.332753 0.984392C0.255053 0.887008 0.219221 0.762746 0.23314 0.638942C0.247058 0.515139 0.309588 0.401936 0.406972 0.324236C0.504356 0.246536 0.628618 0.210703 0.752421 0.224622C0.876225 0.238541 0.989428 0.30107 1.06713 0.398454C1.56112 1.01594 2.12474 1.57432 2.74682 2.06252L2.77807 2.07814C4.32767 3.28117 6.23826 3.92538 8.19994 3.90627C10.1616 3.92538 12.0722 3.28117 13.6218 2.07814L13.6453 2.06252C14.2715 1.5764 14.8379 1.01783 15.3328 0.398454C15.4105 0.30107 15.5237 0.238541 15.6475 0.224622C15.7713 0.210703 15.8955 0.246536 15.9929 0.324236C16.0903 0.401936 16.1528 0.515139 16.1667 0.638942C16.1807 0.762746 16.1448 0.887008 16.0671 0.984392C15.6026 1.55817 15.0846 2.08658 14.5203 2.56252L16.1062 5.29689Z" fill="#4A4A4A"/>
</svg>
