<svg width="20" height="13" viewBox="0 0 20 13" fill="none" xmlns="http://www.w3.org/2000/svg">
<path d="M19.3797 6.3125C19.3484 6.25 18.7 4.80469 17.2469 3.35938C15.7937 1.91406 13.5906 0.40625 10.2 0.40625C6.80937 0.40625 4.49687 2.00781 3.15312 3.35938C1.80937 4.71094 1.05156 6.25 1.02031 6.3125C0.99304 6.37125 0.978912 6.43523 0.978912 6.5C0.978912 6.56477 0.99304 6.62875 1.02031 6.6875C1.05156 6.75 1.7 8.19531 3.15312 9.64062C4.60625 11.0859 6.80937 12.5938 10.2 12.5938C13.5906 12.5938 15.9031 10.9922 17.2469 9.64062C18.5906 8.28906 19.3484 6.75 19.3797 6.6875C19.407 6.62875 19.4211 6.56477 19.4211 6.5C19.4211 6.43523 19.407 6.37125 19.3797 6.3125ZM10.2 11.6562C7.74687 11.6562 5.60625 10.7656 3.84062 9.00781C3.09611 8.27013 2.46669 7.42475 1.97344 6.5C2.46669 5.57525 3.09611 4.72987 3.84062 3.99219C5.60625 2.23438 7.74687 1.34375 10.2 1.34375C12.6531 1.34375 14.7937 2.23438 16.5594 3.99219C17.3039 4.72987 17.9333 5.57525 18.4266 6.5C17.9266 7.45312 15.4344 11.6562 10.2 11.6562ZM10.2 2.90625C9.48922 2.90625 8.79441 3.11702 8.20342 3.51191C7.61243 3.90679 7.15181 4.46806 6.87981 5.12473C6.6078 5.7814 6.53663 6.50399 6.6753 7.20111C6.81397 7.89822 7.15624 8.53857 7.65883 9.04117C8.16143 9.54376 8.80177 9.88603 9.49889 10.0247C10.196 10.1634 10.9186 10.0922 11.5753 9.82019C12.2319 9.54819 12.7932 9.08757 13.1881 8.49658C13.583 7.90559 13.7937 7.21078 13.7937 6.5C13.7937 5.54688 13.4151 4.63279 12.7412 3.95884C12.0672 3.28488 11.1531 2.90625 10.2 2.90625ZM10.2 9.15625C9.67464 9.15625 9.16108 9.00046 8.72426 8.70859C8.28745 8.41672 7.94699 8.00187 7.74594 7.5165C7.5449 7.03114 7.49229 6.49705 7.59479 5.98179C7.69728 5.46653 7.95026 4.99323 8.32174 4.62175C8.69323 4.25026 9.16653 3.99728 9.68179 3.89479C10.1971 3.7923 10.7311 3.8449 11.2165 4.04595C11.7019 4.24699 12.1167 4.58745 12.4086 5.02427C12.7005 5.46108 12.8562 5.97464 12.8562 6.5C12.8542 7.20385 12.5737 7.87828 12.076 8.37598C11.5783 8.87367 10.9038 9.15419 10.2 9.15625Z" fill="#515151"/>
</svg>
