<svg width="42" height="39" viewBox="0 0 42 39" fill="none" xmlns="http://www.w3.org/2000/svg">
<path d="M40.2387 19.2118L36.0008 14.8225L36.5913 9.01728L30.3214 7.72722L27.0387 2.69287L21.1335 4.98979L15.2283 2.69287L11.9456 7.71149L5.67567 8.98581L6.2662 14.8068L2.02832 19.2118L6.2662 23.6012L5.67567 29.4221L11.9456 30.7122L15.2283 35.7308L21.1335 33.4182L27.0387 35.7151L30.3214 30.6965L36.5913 29.4064L36.0008 23.6012L40.2387 19.2118ZM16.583 25.5205L12.4493 21.7447C11.772 21.1312 11.772 20.14 12.4493 19.5265L12.5709 19.4164C13.2483 18.8028 14.3598 18.8028 15.0372 19.4164L17.8335 21.965L26.7782 13.8471C27.4556 13.2335 28.5672 13.2335 29.2445 13.8471L29.3661 13.9572C30.0435 14.5708 30.0435 15.5619 29.3661 16.1755L19.084 25.5205C18.3719 26.1341 17.2777 26.1341 16.583 25.5205Z" fill="#34C759"/>
</svg>
