<svg width="44" height="49" viewBox="0 0 44 49" fill="none" xmlns="http://www.w3.org/2000/svg">
<path fill-rule="evenodd" clip-rule="evenodd" d="M8.63712 26.7733C7.81417 27.3798 7.58499 28.6205 8.12528 29.5445L11.06 34.5633C11.6003 35.4872 12.7054 35.7445 13.5283 35.1379L16.5085 32.9414L11.6173 24.5767L8.63712 26.7733ZM17.4867 34.6143L15.9966 35.7126L19.9096 42.4043C20.1797 42.8663 20.7323 42.9949 21.1438 42.6917C21.5553 42.3884 21.6698 41.768 21.3997 41.306L17.4867 34.6143ZM14.5066 36.8109C12.8607 38.024 10.6504 37.5094 9.56991 35.6616L6.63519 30.6427C5.55468 28.7949 6.01298 26.3134 7.65888 25.1003L11.3841 22.3546C11.7956 22.0513 12.3481 22.18 12.6183 22.6419L22.8898 40.2078C23.7002 41.5937 23.3565 43.4547 22.122 44.3646C20.8875 45.2745 19.2299 44.8886 18.4195 43.5026L14.5066 36.8109Z" fill="black"/>
<path fill-rule="evenodd" clip-rule="evenodd" d="M18.5767 6.42849C18.901 6.39968 19.2134 6.57156 19.392 6.87685L24.2832 15.2415C25.929 14.0284 28.1393 14.543 29.2198 16.3908L29.7089 17.2273C30.7894 19.0752 30.3311 21.5566 28.6852 22.7697L33.5764 31.1344C33.755 31.4397 33.7712 31.8299 33.6187 32.1526C33.4662 32.4751 33.1693 32.6789 32.8441 32.6841L21.2247 32.8694C20.9201 32.8742 20.6343 32.7039 20.467 32.418L13.1302 19.8709C12.963 19.585 12.9375 19.2229 13.0626 18.9109L17.8343 7.01513C17.9678 6.68214 18.2524 6.45725 18.5767 6.42849ZM27.707 21.0968C28.53 20.4902 28.7591 19.2496 28.2188 18.3256L27.7297 17.4891C27.1894 16.5652 26.0844 16.3079 25.2614 16.9145L27.707 21.0968ZM14.8888 19.2318L21.6886 30.8605L31.1953 30.7089L18.7929 9.4989L14.8888 19.2318Z" fill="black"/>
<path fill-rule="evenodd" clip-rule="evenodd" d="M31.3371 9.37821C31.79 9.59436 32.0012 10.1819 31.8087 10.6905L30.5518 14.0108C30.3593 14.5194 29.836 14.7565 29.383 14.5404C28.93 14.3243 28.7188 13.7367 28.9113 13.2281L30.1682 9.90772C30.3607 9.39918 30.8841 9.1621 31.3371 9.37821ZM30.943 17.5145C30.6729 17.0525 30.7874 16.4322 31.1989 16.1289L34.1791 13.9323C34.5906 13.629 35.1431 13.7577 35.4133 14.2197C35.6834 14.6816 35.5688 15.302 35.1573 15.6053L32.1772 17.8018C31.7657 18.1051 31.2131 17.9765 30.943 17.5145ZM32.7533 20.3041C32.7568 19.7516 33.1586 19.3067 33.6508 19.3106L36.8642 19.3361C37.3564 19.3401 37.7526 19.7912 37.7492 20.3438C37.7456 20.8964 37.3438 21.3413 36.8516 21.3373L33.6382 21.3118C33.146 21.3079 32.7498 20.8567 32.7533 20.3041Z" fill="black"/>
</svg>
