<svg width="33" height="33" viewBox="0 0 33 33" fill="none" xmlns="http://www.w3.org/2000/svg">
<path d="M16.4999 0.94458C13.4233 0.94458 10.4158 1.8569 7.85769 3.56616C5.2996 5.27543 3.3058 7.70488 2.12844 10.5473C0.951076 13.3897 0.643024 16.5174 1.24324 19.5349C1.84345 22.5524 3.32498 25.3241 5.50046 27.4996C7.67594 29.6751 10.4477 31.1566 13.4652 31.7568C16.4826 32.357 19.6103 32.049 22.4528 30.8716C25.2952 29.6942 27.7246 27.7004 29.4339 25.1423C31.1431 22.5842 32.0555 19.5767 32.0555 16.5001C32.0555 12.3745 30.4166 8.41793 27.4993 5.5007C24.5821 2.58346 20.6255 0.94458 16.4999 0.94458ZM24.2777 22.4307C24.5355 22.6885 24.6804 23.0383 24.6804 23.4029C24.6804 23.7676 24.5355 24.1173 24.2777 24.3751C24.0198 24.633 23.6701 24.7778 23.3055 24.7778C22.9408 24.7778 22.5911 24.633 22.3332 24.3751L16.4999 18.5418L10.6666 24.3946C10.5389 24.5223 10.3873 24.6235 10.2205 24.6926C10.0537 24.7617 9.8749 24.7973 9.69434 24.7973C9.51378 24.7973 9.33499 24.7617 9.16818 24.6926C9.00137 24.6235 8.84979 24.5223 8.72212 24.3946C8.59445 24.2669 8.49317 24.1153 8.42407 23.9485C8.35498 23.7817 8.31941 23.6029 8.31941 23.4224C8.31941 23.2418 8.35498 23.063 8.42407 22.8962C8.49317 22.7294 8.59445 22.5778 8.72212 22.4501L14.5555 16.5779L8.55684 10.5307C8.29899 10.2728 8.15414 9.92312 8.15414 9.55847C8.15414 9.19381 8.29899 8.8441 8.55684 8.58625C8.81469 8.3284 9.16441 8.18354 9.52907 8.18354C9.89372 8.18354 10.2434 8.3284 10.5013 8.58625L16.4999 14.6529L22.4985 8.6543C22.6262 8.52663 22.7778 8.42535 22.9446 8.35625C23.1114 8.28716 23.2902 8.25159 23.4707 8.25159C23.6513 8.25159 23.8301 8.28716 23.9969 8.35625C24.1637 8.42535 24.3153 8.52663 24.443 8.6543C24.5706 8.78198 24.6719 8.93355 24.741 9.10036C24.8101 9.26718 24.8457 9.44597 24.8457 9.62652C24.8457 9.80708 24.8101 9.98587 24.741 10.1527C24.6719 10.3195 24.5706 10.4711 24.443 10.5987L18.4443 16.5779L24.2777 22.4307Z" fill="#FF3B30"/>
</svg>
