<svg width="19" height="19" viewBox="0 0 19 19" fill="none" xmlns="http://www.w3.org/2000/svg">
<path fill-rule="evenodd" clip-rule="evenodd" d="M0.369324 9.49998C0.369324 7.15794 1.29969 4.91182 2.95577 3.25575C4.61184 1.59968 6.85795 0.669312 9.19999 0.669312C11.542 0.669312 13.7881 1.59968 15.4442 3.25575C17.1003 4.91182 18.0307 7.15794 18.0307 9.49998C18.0307 11.842 17.1003 14.0881 15.4442 15.7442C13.7881 17.4003 11.542 18.3306 9.19999 18.3306C6.85795 18.3306 4.61184 17.4003 2.95577 15.7442C1.29969 14.0881 0.369324 11.842 0.369324 9.49998ZM9.19999 1.93598C7.19389 1.93598 5.26996 2.7329 3.85143 4.15142C2.43291 5.56995 1.63599 7.49388 1.63599 9.49998C1.63599 11.5061 2.43291 13.43 3.85143 14.8485C5.26996 16.2671 7.19389 17.064 9.19999 17.064C11.2061 17.064 13.13 16.2671 14.5485 14.8485C15.9671 13.43 16.764 11.5061 16.764 9.49998C16.764 7.49388 15.9671 5.56995 14.5485 4.15142C13.13 2.7329 11.2061 1.93598 9.19999 1.93598ZM12.3387 6.36264C12.4636 6.48766 12.5338 6.6572 12.5338 6.83398C12.5338 7.01075 12.4636 7.18029 12.3387 7.30531L10.1427 9.49998L12.3387 11.6946C12.4638 11.8198 12.5342 11.9896 12.5342 12.1666C12.5342 12.3437 12.4638 12.5135 12.3387 12.6386C12.2135 12.7638 12.0437 12.8342 11.8667 12.8342C11.6896 12.8342 11.5198 12.7638 11.3947 12.6386L9.19999 10.4426L7.00532 12.6386C6.94334 12.7006 6.86975 12.7498 6.78877 12.7833C6.70778 12.8169 6.62098 12.8342 6.53332 12.8342C6.44566 12.8342 6.35886 12.8169 6.27788 12.7833C6.19689 12.7498 6.12331 12.7006 6.06132 12.6386C5.99934 12.5767 5.95017 12.5031 5.91663 12.4221C5.88308 12.3411 5.86581 12.2543 5.86581 12.1666C5.86581 12.079 5.88308 11.9922 5.91663 11.9112C5.95017 11.8302 5.99934 11.7566 6.06132 11.6946L8.25732 9.49998L6.06132 7.30531C5.93614 7.18013 5.86581 7.01035 5.86581 6.83331C5.86581 6.65628 5.93614 6.48649 6.06132 6.36131C6.18651 6.23613 6.35629 6.1658 6.53332 6.1658C6.71036 6.1658 6.88014 6.23613 7.00532 6.36131L9.19999 8.55731L11.3947 6.36131C11.4566 6.29923 11.5302 6.24997 11.6111 6.21636C11.6921 6.18275 11.779 6.16545 11.8667 6.16545C11.9543 6.16545 12.0412 6.18275 12.1222 6.21636C12.2032 6.24997 12.2767 6.30056 12.3387 6.36264Z" fill="#4A4A4A"/>
</svg>
